<svg fill="none" height="327" viewBox="0 0 369 327" width="369" xmlns="http://www.w3.org/2000/svg"><g fill="#5e00e5"><path d="m239.87 150.112h-8.827c-5.295 0-8.826-3.53-8.826-8.826 0-5.295 3.531-8.826 8.826-8.826h8.827c15.004 0 26.478-11.474 26.478-26.478 0-15.0043-11.474-26.4783-26.478-26.4783h-8.827c-5.295 0-8.826-3.5304-8.826-8.826 0-5.2957 3.531-8.8261 8.826-8.8261h8.827c24.713 0 44.13 19.4174 44.13 44.1304s-19.417 44.13-44.13 44.13z"/><path d="m195.739 194.174h-70.609c-24.713 0-44.13-19.417-44.13-44.131v-79.4343c0-5.2957 3.5304-8.8261 8.8261-8.8261h141.2169c5.296 0 8.827 3.5304 8.827 8.8261v79.4343c0 24.714-19.418 44.131-44.131 44.131zm-97.0868-114.7392v70.6082c0 15.005 11.4738 26.479 26.4778 26.479h70.609c15.004 0 26.478-11.474 26.478-26.479v-70.6082zm26.4778-35.3044c-5.295 0-8.826-3.5304-8.826-8.826v-26.47831c0-5.29565 3.531-8.82609 8.826-8.82609 5.296 0 8.827 3.53044 8.827 8.82609v26.47831c0 5.2956-3.531 8.826-8.827 8.826zm35.305 0c-5.296 0-8.826-3.5304-8.826-8.826v-26.47831c0-5.29565 3.53-8.82609 8.826-8.82609 5.295 0 8.826 3.53044 8.826 8.82609v26.47831c0 5.2956-3.531 8.826-8.826 8.826zm35.304 0c-5.296 0-8.826-3.5304-8.826-8.826v-26.47831c0-5.29565 3.53-8.82609 8.826-8.82609s8.826 3.53044 8.826 8.82609v26.47831c0 5.2956-3.53 8.826-8.826 8.826z"/><path d="m10.24 305c-2.00533 0-3.54133-.512-4.608-1.536-1.024-1.067-1.536-2.581-1.536-4.544v-32.96c0-1.963.512-3.456 1.536-4.48 1.06667-1.067 2.60267-1.6 4.608-1.6h21.696c1.536 0 2.688.384 3.456 1.152s1.152 1.877 1.152 3.328c0 1.493-.384 2.645-1.152 3.456-.768.768-1.92 1.152-3.456 1.152h-16.576v8.576h15.168c1.4933 0 2.624.384 3.392 1.152.8107.768 1.216 1.899 1.216 3.392s-.4053 2.624-1.216 3.392c-.768.768-1.8987 1.152-3.392 1.152h-15.168v9.28h16.576c1.536 0 2.688.405 3.456 1.216.768.768 1.152 1.877 1.152 3.328 0 1.493-.384 2.624-1.152 3.392s-1.92 1.152-3.456 1.152zm48.6.704c-3.2 0-5.8453-.491-7.936-1.472-2.048-.981-3.584-2.453-4.608-4.416-1.024-2.005-1.536-4.501-1.536-7.488v-10.432h-2.176c-1.3653 0-2.432-.363-3.2-1.088-.7253-.725-1.088-1.771-1.088-3.136s.3627-2.389 1.088-3.072c.768-.725 1.8347-1.088 3.2-1.088h2.176v-3.968c0-1.877.4907-3.307 1.472-4.288s2.3893-1.472 4.224-1.472 3.2427.491 4.224 1.472 1.472 2.411 1.472 4.288v3.968h5.248c1.408 0 2.4747.363 3.2 1.088.768.683 1.152 1.707 1.152 3.072s-.384 2.411-1.152 3.136c-.7253.725-1.792 1.088-3.2 1.088h-5.248v10.048c0 1.579.3627 2.752 1.088 3.52.768.725 1.9627 1.088 3.584 1.088.5973 0 1.1733-.064 1.728-.192s1.0667-.192 1.536-.192c.6827-.043 1.2373.171 1.664.64.4267.427.64 1.429.64 3.008 0 1.28-.192 2.368-.576 3.264-.384.853-1.0667 1.472-2.048 1.856-.5973.213-1.408.384-2.432.512-1.024.171-1.856.256-2.496.256zm17.495-.128c-1.792 0-3.1787-.491-4.16-1.472s-1.472-2.411-1.472-4.288v-34.752c0-1.877.4907-3.307 1.472-4.288s2.368-1.472 4.16-1.472c1.8347 0 3.2427.491 4.224 1.472 1.024.981 1.536 2.411 1.536 4.288v13.952h-1.024c1.024-2.005 2.4747-3.541 4.352-4.608 1.92-1.067 4.096-1.6 6.528-1.6 2.5173 0 4.5867.491 6.208 1.472 1.6213.939 2.837 2.432 3.648 4.48.811 2.005 1.216 4.544 1.216 7.616v13.44c0 1.877-.491 3.307-1.472 4.288s-2.3893 1.472-4.224 1.472-3.2427-.491-4.224-1.472-1.472-2.411-1.472-4.288v-12.992c0-1.92-.3413-3.285-1.024-4.096-.64-.811-1.6-1.216-2.88-1.216-1.7067 0-3.072.555-4.096 1.664-1.024 1.067-1.536 2.517-1.536 4.352v12.288c0 3.84-1.92 5.76-5.76 5.76zm39.837 0c-1.878 0-3.328-.512-4.352-1.536-1.024-1.067-1.536-2.539-1.536-4.416v-33.792c0-1.92.512-3.392 1.536-4.416 1.066-1.024 2.538-1.536 4.416-1.536h15.744c5.12 0 9.066 1.323 11.839 3.968 2.817 2.603 4.225 6.208 4.225 10.816s-1.408 8.235-4.225 10.88c-2.773 2.603-6.719 3.904-11.839 3.904h-9.92v10.176c0 1.877-.491 3.349-1.472 4.416-.982 1.024-2.454 1.536-4.416 1.536zm5.888-25.152h7.872c2.218 0 3.925-.469 5.12-1.408 1.194-.981 1.792-2.432 1.792-4.352 0-1.963-.598-3.413-1.792-4.352-1.195-.939-2.902-1.408-5.12-1.408h-7.872zm37.362 25.152c-1.878 0-3.328-.512-4.352-1.536-1.024-1.067-1.536-2.539-1.536-4.416v-33.792c0-1.92.512-3.392 1.536-4.416 1.066-1.024 2.538-1.536 4.416-1.536h15.744c5.12 0 9.066 1.259 11.839 3.776 2.817 2.475 4.225 5.931 4.225 10.368 0 2.859-.64 5.355-1.92 7.488-1.238 2.091-3.051 3.712-5.44 4.864-2.347 1.109-5.248 1.664-8.704 1.664l.512-1.152h3.072c1.834 0 3.456.448 4.864 1.344 1.408.853 2.581 2.176 3.52 3.968l3.2 5.76c.682 1.237 1.002 2.453.96 3.648-.043 1.152-.512 2.112-1.408 2.88-.854.725-2.112 1.088-3.776 1.088s-3.03-.341-4.096-1.024c-1.024-.683-1.942-1.749-2.752-3.2l-5.824-10.688c-.512-.939-1.174-1.579-1.984-1.92-.768-.384-1.664-.576-2.688-.576h-3.52v11.456c0 1.877-.491 3.349-1.472 4.416-.982 1.024-2.454 1.536-4.416 1.536zm5.888-25.728h7.808c2.261 0 3.989-.448 5.184-1.344 1.194-.896 1.792-2.283 1.792-4.16 0-1.792-.598-3.136-1.792-4.032-1.195-.939-2.923-1.408-5.184-1.408h-7.808zm39.555 25.152c-2.005 0-3.541-.512-4.608-1.536-1.024-1.067-1.536-2.581-1.536-4.544v-32.96c0-1.963.512-3.456 1.536-4.48 1.067-1.067 2.603-1.6 4.608-1.6h21.696c1.536 0 2.688.384 3.456 1.152s1.152 1.877 1.152 3.328c0 1.493-.384 2.645-1.152 3.456-.768.768-1.92 1.152-3.456 1.152h-16.576v8.576h15.168c1.493 0 2.624.384 3.392 1.152.811.768 1.216 1.899 1.216 3.392s-.405 2.624-1.216 3.392c-.768.768-1.899 1.152-3.392 1.152h-15.168v9.28h16.576c1.536 0 2.688.405 3.456 1.216.768.768 1.152 1.877 1.152 3.328 0 1.493-.384 2.624-1.152 3.392s-1.92 1.152-3.456 1.152zm49.312.704c-1.707 0-3.499-.128-5.376-.384-1.835-.213-3.584-.555-5.248-1.024s-3.158-1.024-4.48-1.664c-1.152-.555-1.963-1.28-2.432-2.176-.47-.939-.64-1.92-.512-2.944s.49-1.92 1.088-2.688c.597-.811 1.386-1.344 2.368-1.6.981-.299 2.09-.171 3.328.384 1.621.768 3.456 1.365 5.504 1.792s3.968.64 5.76.64c2.816 0 4.778-.363 5.888-1.088 1.152-.768 1.728-1.707 1.728-2.816 0-.981-.406-1.771-1.216-2.368-.768-.597-2.155-1.109-4.16-1.536l-7.488-1.6c-4.096-.853-7.147-2.347-9.152-4.48-2.006-2.133-3.008-4.885-3.008-8.256 0-2.219.448-4.224 1.344-6.016.938-1.835 2.24-3.392 3.904-4.672 1.706-1.28 3.712-2.261 6.016-2.944 2.346-.725 4.949-1.088 7.808-1.088 2.218 0 4.458.256 6.72.768 2.304.469 4.288 1.195 5.952 2.176.981.512 1.685 1.216 2.112 2.112.426.896.597 1.835.512 2.816-.086.939-.427 1.771-1.024 2.496-.555.725-1.323 1.216-2.304 1.472-.939.213-2.07.043-3.392-.512-1.238-.555-2.646-.96-4.224-1.216-1.536-.299-3.03-.448-4.48-.448-1.579 0-2.923.192-4.032.576-1.11.341-1.963.853-2.56 1.536-.555.683-.832 1.472-.832 2.368s.362 1.664 1.088 2.304c.768.597 2.154 1.109 4.16 1.536l7.424 1.6c4.138.896 7.232 2.368 9.28 4.416s3.071 4.715 3.071 8c0 2.219-.447 4.224-1.343 6.016s-2.176 3.328-3.84 4.608c-1.664 1.237-3.67 2.197-6.016 2.88-2.347.683-4.992 1.024-7.936 1.024zm41.687 0c-1.707 0-3.499-.128-5.376-.384-1.835-.213-3.584-.555-5.248-1.024s-3.157-1.024-4.48-1.664c-1.152-.555-1.963-1.28-2.432-2.176-.469-.939-.64-1.92-.512-2.944s.491-1.92 1.088-2.688c.597-.811 1.387-1.344 2.368-1.6.981-.299 2.091-.171 3.328.384 1.621.768 3.456 1.365 5.504 1.792s3.968.64 5.76.64c2.816 0 4.779-.363 5.888-1.088 1.152-.768 1.728-1.707 1.728-2.816 0-.981-.405-1.771-1.216-2.368-.768-.597-2.155-1.109-4.16-1.536l-7.488-1.6c-4.096-.853-7.147-2.347-9.152-4.48s-3.008-4.885-3.008-8.256c0-2.219.448-4.224 1.344-6.016.939-1.835 2.24-3.392 3.904-4.672 1.707-1.28 3.712-2.261 6.016-2.944 2.347-.725 4.949-1.088 7.808-1.088 2.219 0 4.459.256 6.72.768 2.304.469 4.288 1.195 5.952 2.176.981.512 1.685 1.216 2.112 2.112s.597 1.835.512 2.816c-.085.939-.427 1.771-1.024 2.496-.555.725-1.323 1.216-2.304 1.472-.939.213-2.069.043-3.392-.512-1.237-.555-2.645-.96-4.224-1.216-1.536-.299-3.029-.448-4.48-.448-1.579 0-2.923.192-4.032.576-1.109.341-1.963.853-2.56 1.536-.555.683-.832 1.472-.832 2.368s.363 1.664 1.088 2.304c.768.597 2.155 1.109 4.16 1.536l7.424 1.6c4.139.896 7.232 2.368 9.28 4.416s3.072 4.715 3.072 8c0 2.219-.448 4.224-1.344 6.016s-2.176 3.328-3.84 4.608c-1.664 1.237-3.669 2.197-6.016 2.88s-4.992 1.024-7.936 1.024zm46.68 0c-4.566 0-8.576-.96-12.032-2.88-3.456-1.963-6.144-4.693-8.064-8.192-1.878-3.499-2.816-7.573-2.816-12.224 0-3.499.533-6.677 1.6-9.536 1.109-2.859 2.666-5.312 4.672-7.36 2.048-2.048 4.48-3.605 7.296-4.672 2.816-1.109 5.93-1.664 9.344-1.664 4.565 0 8.554.96 11.968 2.88 3.456 1.92 6.144 4.629 8.064 8.128 1.92 3.456 2.88 7.531 2.88 12.224 0 3.499-.555 6.677-1.664 9.536-1.067 2.859-2.624 5.333-4.672 7.424-2.006 2.048-4.416 3.627-7.232 4.736-2.816 1.067-5.931 1.6-9.344 1.6zm0-9.856c2.261 0 4.181-.533 5.76-1.6 1.578-1.067 2.794-2.603 3.647-4.608.854-2.005 1.281-4.416 1.281-7.232 0-4.224-.939-7.509-2.816-9.856-1.878-2.347-4.502-3.52-7.872-3.52-2.219 0-4.139.533-5.76 1.6-1.579 1.024-2.795 2.539-3.649 4.544-.853 1.963-1.279 4.373-1.279 7.232 0 4.224.938 7.531 2.816 9.92 1.877 2.347 4.501 3.52 7.872 3.52z"/></g></svg>